# xmcd CD database file
#
# Track frame offsets:
#	150
#	14462
#	33900
#	50175
#	68195
#	84037
#	101512
#	117375
#	131062
#	156037
#
# Disc length: 2495 seconds
#
# Revision: 2
# Processed by: cddbd v1.5.1PL0 Copyright (c) Steve Scherf et al.
# Submitted via: CDex 1.51
#
DISCID=7e09bd0a
DTITLE=Screamin' Jay Hawkins - Somethin' Funny Goin' On
DYEAR=1994
DGENRE=Blues
TTITLE0=Somethin' Funny Goin' On
TTITLE1=I Am The Cool
TTITLE2=Whistling Past The Graveyard
TTITLE3=Rock The House
TTITLE4=Scream The Blues
TTITLE5=Brujo
TTITLE6=You Make Me Sick
TTITLE7=Give It A Break
TTITLE8=When You Walked Out The Door
TTITLE9=Fourteen Wives
EXTD=YEAR: 1994
EXTT0=
EXTT1=
EXTT2=
EXTT3=
EXTT4=
EXTT5=
EXTT6=
EXTT7=
EXTT8=
EXTT9=
PLAYORDER=
